<mxfile host="Electron" agent="Mozilla/5.0 (Macintosh; Intel Mac OS X 10_15_7) AppleWebKit/537.36 (KHTML, like Gecko) draw.io/28.0.6 Chrome/138.0.7204.100 Electron/37.2.3 Safari/537.36" version="28.0.6">
  <diagram name="Page-1" id="EfgNBXvSFzb3nGtfddwz">
    <mxGraphModel dx="1000" dy="743" grid="1" gridSize="10" guides="1" tooltips="1" connect="1" arrows="1" fold="1" page="1" pageScale="1" pageWidth="1169" pageHeight="827" math="0" shadow="0">
      <root>
        <mxCell id="0" />
        <mxCell id="1" parent="0" />
        <mxCell id="05P0sBPWOWHZCJiAdMw7-10" style="edgeStyle=orthogonalEdgeStyle;rounded=0;orthogonalLoop=1;jettySize=auto;html=1;entryX=0;entryY=0.5;entryDx=0;entryDy=0;" edge="1" parent="1" source="05P0sBPWOWHZCJiAdMw7-2" target="05P0sBPWOWHZCJiAdMw7-8">
          <mxGeometry relative="1" as="geometry" />
        </mxCell>
        <mxCell id="05P0sBPWOWHZCJiAdMw7-2" value="Balance Dynamics Controller" style="rounded=0;whiteSpace=wrap;html=1;" vertex="1" parent="1">
          <mxGeometry x="750" y="290" width="120" height="60" as="geometry" />
        </mxCell>
        <mxCell id="05P0sBPWOWHZCJiAdMw7-9" value="" style="group" vertex="1" connectable="0" parent="1">
          <mxGeometry x="900" y="230" width="130" height="130" as="geometry" />
        </mxCell>
        <mxCell id="05P0sBPWOWHZCJiAdMw7-3" value="Motors" style="ellipse;whiteSpace=wrap;html=1;aspect=fixed;" vertex="1" parent="05P0sBPWOWHZCJiAdMw7-9">
          <mxGeometry x="50" width="80" height="80" as="geometry" />
        </mxCell>
        <mxCell id="05P0sBPWOWHZCJiAdMw7-4" value="Motors" style="ellipse;whiteSpace=wrap;html=1;aspect=fixed;" vertex="1" parent="05P0sBPWOWHZCJiAdMw7-9">
          <mxGeometry x="40" y="10" width="80" height="80" as="geometry" />
        </mxCell>
        <mxCell id="05P0sBPWOWHZCJiAdMw7-5" value="Motors" style="ellipse;whiteSpace=wrap;html=1;aspect=fixed;" vertex="1" parent="05P0sBPWOWHZCJiAdMw7-9">
          <mxGeometry x="30" y="20" width="80" height="80" as="geometry" />
        </mxCell>
        <mxCell id="05P0sBPWOWHZCJiAdMw7-6" value="Motors" style="ellipse;whiteSpace=wrap;html=1;aspect=fixed;" vertex="1" parent="05P0sBPWOWHZCJiAdMw7-9">
          <mxGeometry x="20" y="30" width="80" height="80" as="geometry" />
        </mxCell>
        <mxCell id="05P0sBPWOWHZCJiAdMw7-7" value="Motors" style="ellipse;whiteSpace=wrap;html=1;aspect=fixed;" vertex="1" parent="05P0sBPWOWHZCJiAdMw7-9">
          <mxGeometry x="10" y="40" width="80" height="80" as="geometry" />
        </mxCell>
        <mxCell id="05P0sBPWOWHZCJiAdMw7-8" value="Motors" style="ellipse;whiteSpace=wrap;html=1;aspect=fixed;" vertex="1" parent="05P0sBPWOWHZCJiAdMw7-9">
          <mxGeometry y="50" width="80" height="80" as="geometry" />
        </mxCell>
        <mxCell id="05P0sBPWOWHZCJiAdMw7-28" style="edgeStyle=orthogonalEdgeStyle;rounded=0;orthogonalLoop=1;jettySize=auto;html=1;entryX=0;entryY=0.5;entryDx=0;entryDy=0;" edge="1" parent="1" source="05P0sBPWOWHZCJiAdMw7-11" target="05P0sBPWOWHZCJiAdMw7-26">
          <mxGeometry relative="1" as="geometry" />
        </mxCell>
        <mxCell id="05P0sBPWOWHZCJiAdMw7-11" value="RC Input" style="rounded=0;whiteSpace=wrap;html=1;" vertex="1" parent="1">
          <mxGeometry x="210" y="330" width="120" height="60" as="geometry" />
        </mxCell>
        <mxCell id="05P0sBPWOWHZCJiAdMw7-27" style="edgeStyle=orthogonalEdgeStyle;rounded=0;orthogonalLoop=1;jettySize=auto;html=1;entryX=0;entryY=0.5;entryDx=0;entryDy=0;" edge="1" parent="1" source="05P0sBPWOWHZCJiAdMw7-17" target="05P0sBPWOWHZCJiAdMw7-26">
          <mxGeometry relative="1" as="geometry" />
        </mxCell>
        <mxCell id="05P0sBPWOWHZCJiAdMw7-17" value="Autonomous Driving Input" style="rounded=0;whiteSpace=wrap;html=1;" vertex="1" parent="1">
          <mxGeometry x="210" y="250" width="120" height="60" as="geometry" />
        </mxCell>
        <mxCell id="05P0sBPWOWHZCJiAdMw7-25" style="edgeStyle=orthogonalEdgeStyle;rounded=0;orthogonalLoop=1;jettySize=auto;html=1;entryX=0.5;entryY=0;entryDx=0;entryDy=0;" edge="1" parent="1" source="05P0sBPWOWHZCJiAdMw7-24" target="05P0sBPWOWHZCJiAdMw7-2">
          <mxGeometry relative="1" as="geometry" />
        </mxCell>
        <mxCell id="05P0sBPWOWHZCJiAdMw7-24" value="IMU Readings" style="rounded=0;whiteSpace=wrap;html=1;" vertex="1" parent="1">
          <mxGeometry x="750" y="190" width="120" height="60" as="geometry" />
        </mxCell>
        <mxCell id="05P0sBPWOWHZCJiAdMw7-36" style="edgeStyle=orthogonalEdgeStyle;rounded=0;orthogonalLoop=1;jettySize=auto;html=1;entryX=0;entryY=0.5;entryDx=0;entryDy=0;" edge="1" parent="1" source="05P0sBPWOWHZCJiAdMw7-26" target="05P0sBPWOWHZCJiAdMw7-32">
          <mxGeometry relative="1" as="geometry" />
        </mxCell>
        <mxCell id="05P0sBPWOWHZCJiAdMw7-26" value="Manual control?" style="rhombus;whiteSpace=wrap;html=1;" vertex="1" parent="1">
          <mxGeometry x="410" y="280" width="80" height="80" as="geometry" />
        </mxCell>
        <mxCell id="05P0sBPWOWHZCJiAdMw7-37" style="edgeStyle=orthogonalEdgeStyle;rounded=0;orthogonalLoop=1;jettySize=auto;html=1;entryX=0;entryY=0.5;entryDx=0;entryDy=0;" edge="1" parent="1" source="05P0sBPWOWHZCJiAdMw7-32" target="05P0sBPWOWHZCJiAdMw7-2">
          <mxGeometry relative="1" as="geometry" />
        </mxCell>
        <mxCell id="05P0sBPWOWHZCJiAdMw7-32" value="" style="rounded=0;whiteSpace=wrap;html=1;" vertex="1" parent="1">
          <mxGeometry x="530" y="210" width="150" height="220" as="geometry" />
        </mxCell>
        <mxCell id="05P0sBPWOWHZCJiAdMw7-33" value="Speed Vector" style="rounded=0;whiteSpace=wrap;html=1;" vertex="1" parent="1">
          <mxGeometry x="545" y="220" width="120" height="60" as="geometry" />
        </mxCell>
        <mxCell id="05P0sBPWOWHZCJiAdMw7-34" value="Body Roll&lt;div&gt;Constraints&lt;/div&gt;" style="rounded=0;whiteSpace=wrap;html=1;" vertex="1" parent="1">
          <mxGeometry x="545" y="290" width="120" height="60" as="geometry" />
        </mxCell>
        <mxCell id="05P0sBPWOWHZCJiAdMw7-35" value="Body Set Height" style="rounded=0;whiteSpace=wrap;html=1;" vertex="1" parent="1">
          <mxGeometry x="545" y="360" width="120" height="60" as="geometry" />
        </mxCell>
      </root>
    </mxGraphModel>
  </diagram>
</mxfile>
